<?xml version="1.0" encoding="UTF-8"?>
<svg version="1.1" xmlns="http://www.w3.org/2000/svg" width="500" height="500">
<path d="M0 0 C165 0 330 0 500 0 C500 165 500 330 500 500 C335 500 170 500 0 500 C0 335 0 170 0 0 Z " fill="#FEFEFE" transform="translate(0,0)"/>
<path d="M0 0 C6.04310023 4.92400759 9.55420525 13.50815447 11 21 C11.98064862 30.61035649 10.06928276 39.30655676 4.3125 47.1875 C-0.85015243 52.65252036 -8.27271171 55.18139341 -15.04003906 58.13769531 C-22.37257441 61.36371859 -26.79473424 64.08165956 -31 71 C-32.9742461 65.07726171 -29.36506765 58.47296119 -26.875 53 C-21.96376201 43.6466572 -12.26152897 32.42050966 -2 29 C-0.51759375 26.65768903 -0.51759375 26.65768903 0 24 C-0.886875 24.94875 -1.77375 25.8975 -2.6875 26.875 C-6.02020978 30.23480498 -9.64680458 33.06015951 -13.4375 35.875 C-20.64752336 41.27247642 -26.47470414 47.14244082 -31 55 C-34.62963761 49.55554359 -34.61716991 44.36847789 -34 38 C-31.32607787 29.14369742 -22.48253279 24.14920134 -14.875 20 C-8.69517604 16.59515625 -3.47072496 13.54322957 -1.2109375 6.5625 C-0.6983929 4.37564302 -0.2927346 2.22579241 0 0 Z " fill="#7FB246" transform="translate(131,218)"/>
<path d="M0 0 C1 2 1 2 0.75 5.625 C0.6987617 12.7215044 5.20109659 17.34200476 9.9375 22.1875 C12.35195137 24.51964053 14.82070928 26.71151899 17.4375 28.8125 C20 31 20 31 21 34 C19.4050992 35.19991599 17.79873853 36.38461318 16.1875 37.5625 C15.29417969 38.22378906 14.40085937 38.88507813 13.48046875 39.56640625 C12.66191406 40.03949219 11.84335938 40.51257813 11 41 C6.9766562 39.6588854 5.38127545 36.96365312 2.9375 33.6875 C2.49083984 33.10548828 2.04417969 32.52347656 1.58398438 31.92382812 C-0.58096315 29.06635627 -2.56081354 26.29305377 -4 23 C-2.34873995 29.15139732 0.94391492 32.73179062 5.1015625 37.4140625 C7 40 7 40 7 44 C6.0069784 45.33853871 5.0063814 46.67147666 4 48 C3.22167356 50.57258666 3.22167356 50.57258666 2.8125 53.25 C2.65394531 54.14203125 2.49539062 55.0340625 2.33203125 55.953125 C2.16767578 56.96632813 2.16767578 56.96632813 2 58 C-5.87898621 54.41224735 -11.56495107 48.11360275 -15.25 40.375 C-17.3662705 30.85178273 -16.49838055 21.80413136 -11.453125 13.43359375 C-8.07798443 8.42315276 -4.42630424 4.10242832 0 0 Z " fill="#079649" transform="translate(93,202)"/>
<path d="M0 0 C0.33 6.6 0.66 13.2 1 20 C2.65 19.01 4.3 18.02 6 17 C10.20293133 16.46508147 12.39808674 16.69314226 16.1875 18.625 C19.94007245 21.79383896 22.58303373 24.38757869 23.3828125 29.3984375 C23.63977086 35.10291306 22.8849647 38.59004007 19 43 C14.06127787 47.45689558 10.62180079 48.33670173 4 48 C0.5625 47 0.5625 47 -2 46 C-2.33 46.66 -2.66 47.32 -3 48 C-3.99 47.67 -4.98 47.34 -6 47 C-6 33.14 -6 19.28 -6 5 C-7.32 5 -8.64 5 -10 5 C-10 4.01 -10 3.02 -10 2 C-3.375 0 -3.375 0 0 0 Z " fill="#638D4D" transform="translate(415,224)"/>
<path d="M0 0 C3.31232698 -0.08834684 6.62434435 -0.14083584 9.9375 -0.1875 C10.86369141 -0.21263672 11.78988281 -0.23777344 12.74414062 -0.26367188 C20.02910652 -0.34035573 26.85547232 0.3156471 32.5625 5.1875 C34.45472111 8.88967173 35.00966012 11.99172525 34 16 C31.26361335 20.6545846 28.19395756 23.41126004 23 25 C19.30979892 25.24900142 15.7047205 25.08927037 12 25 C12.33 28.96 12.66 32.92 13 37 C14.32 37.33 15.64 37.66 17 38 C17 38.99 17 39.98 17 41 C11.39 41 5.78 41 0 41 C0 40.01 0 39.02 0 38 C1.98 37.505 1.98 37.505 4 37 C4.33 26.11 4.66 15.22 5 4 C3.35 3.67 1.7 3.34 0 3 C0 2.01 0 1.02 0 0 Z " fill="#5E8947" transform="translate(153,230)"/>
<path d="M0 0 C5.94 0 11.88 0 18 0 C18 0.99 18 1.98 18 3 C16.35 3.66 14.7 4.32 13 5 C12.67 9.62 12.34 14.24 12 19 C18.6 19 25.2 19 32 19 C32 14.05 32 9.1 32 4 C29.525 3.505 29.525 3.505 27 3 C27 2.01 27 1.02 27 0 C32.61 0 38.22 0 44 0 C44 0.99 44 1.98 44 3 C42.68 3.33 41.36 3.66 40 4 C40 14.89 40 25.78 40 37 C41.32 37.33 42.64 37.66 44 38 C44 38.99 44 39.98 44 41 C38.39 41 32.78 41 27 41 C27 40.01 27 39.02 27 38 C28.98 37.505 28.98 37.505 31 37 C31.33 32.05 31.66 27.1 32 22 C25.4 22 18.8 22 12 22 C12.33 27.28 12.66 32.56 13 38 C14.65 38 16.3 38 18 38 C18 38.99 18 39.98 18 41 C12.06 41 6.12 41 0 41 C0 40.01 0 39.02 0 38 C1.65 38 3.3 38 5 38 C5 27.11 5 16.22 5 5 C2.525 4.01 2.525 4.01 0 3 C0 2.01 0 1.02 0 0 Z " fill="#608B49" transform="translate(319,230)"/>
<path d="M0 0 C2.2700316 1.46400589 3.83724265 2.73307905 5.0546875 5.16796875 C5.20644299 6.76058941 5.30369075 8.35861731 5.37109375 9.95703125 C5.41298828 10.89804688 5.45488281 11.8390625 5.49804688 12.80859375 C5.53736328 13.7934375 5.57667969 14.77828125 5.6171875 15.79296875 C5.66037109 16.78554688 5.70355469 17.778125 5.74804688 18.80078125 C5.85429819 21.25636713 5.95633714 23.71205578 6.0546875 26.16796875 C7.0446875 26.49796875 8.0346875 26.82796875 9.0546875 27.16796875 C8.7246875 28.15796875 8.3946875 29.14796875 8.0546875 30.16796875 C4.6796875 29.85546875 4.6796875 29.85546875 1.0546875 29.16796875 C0.3946875 28.17796875 -0.2653125 27.18796875 -0.9453125 26.16796875 C-1.9559375 26.82796875 -2.9665625 27.48796875 -4.0078125 28.16796875 C-7.80450577 30.30792314 -10.55137527 30.90029162 -14.9453125 30.16796875 C-18.32653241 27.72197988 -19.71468033 26.27500316 -20.5703125 22.16796875 C-19.73987923 18.18188906 -18.06274573 16.7054144 -14.9453125 14.16796875 C-11.79600357 13.11819911 -9.55716794 13.0666528 -6.2578125 13.10546875 C-5.26394531 13.11449219 -4.27007812 13.12351563 -3.24609375 13.1328125 C-2.10720703 13.15021484 -2.10720703 13.15021484 -0.9453125 13.16796875 C-1.03239919 11.70851587 -1.14058157 10.25031007 -1.2578125 8.79296875 C-1.31582031 7.98085937 -1.37382812 7.16875 -1.43359375 6.33203125 C-1.77521778 3.78875537 -1.77521778 3.78875537 -4.9453125 2.16796875 C-7.52911427 1.91765898 -7.52911427 1.91765898 -9.9453125 2.16796875 C-11.36108727 3.35221201 -11.36108727 3.35221201 -11.0078125 6.73046875 C-10.9871875 7.86484375 -10.9665625 8.99921875 -10.9453125 10.16796875 C-12.61143155 10.21068975 -14.27914135 10.20860707 -15.9453125 10.16796875 C-16.9453125 9.16796875 -16.9453125 9.16796875 -17.3203125 5.79296875 C-16.9453125 2.16796875 -16.9453125 2.16796875 -15.0703125 0.23046875 C-10.17914943 -1.43252669 -4.87137052 -2.08353799 0 0 Z " fill="#618C4B" transform="translate(228.9453125,241.83203125)"/>
<path d="M0 0 C0.33 1.32 0.66 2.64 1 4 C1.680625 3.34 2.36125 2.68 3.0625 2 C6.73616939 -0.50122172 8.63083745 -0.54614532 13 0 C16.5386994 1.65139305 17.81070153 2.71605229 20 6 C20.31884766 8.26831055 20.31884766 8.26831055 20.4140625 10.88671875 C20.45273437 11.82451172 20.49140625 12.76230469 20.53125 13.72851562 C20.5621875 14.70498047 20.593125 15.68144531 20.625 16.6875 C20.66367187 17.67556641 20.70234375 18.66363281 20.7421875 19.68164062 C20.83645867 22.12090707 20.92206218 24.56016595 21 27 C22.32 27.33 23.64 27.66 25 28 C25 28.66 25 29.32 25 30 C19.72 30 14.44 30 9 30 C9 29.34 9 28.68 9 28 C10.32 27.67 11.64 27.34 13 27 C13 19.74 13 12.48 13 5 C4.64715023 4.16794971 4.64715023 4.16794971 1 7 C0.58472876 9.12694665 0.58472876 9.12694665 0.70703125 11.5703125 C0.7215332 12.91416016 0.7215332 12.91416016 0.73632812 14.28515625 C0.7740332 15.69087891 0.7740332 15.69087891 0.8125 17.125 C0.82603516 18.06988281 0.83957031 19.01476562 0.85351562 19.98828125 C0.88893694 22.32608779 0.93832729 24.66276237 1 27 C2.32 27.33 3.64 27.66 5 28 C5 28.66 5 29.32 5 30 C-0.28 30 -5.56 30 -11 30 C-11 29.34 -11 28.68 -11 28 C-9.68 27.67 -8.36 27.34 -7 27 C-7 19.74 -7 12.48 -7 5 C-7.99 4.67 -8.98 4.34 -10 4 C-9.67 3.01 -9.34 2.02 -9 1 C-5.846632 0.29925156 -3.27275026 0 0 0 Z " fill="#5B8744" transform="translate(252,241)"/>
<path d="M0 0 C0.01981934 0.68626465 0.03963867 1.3725293 0.06005859 2.07958984 C0.15510945 5.17845779 0.26486847 8.27663294 0.375 11.375 C0.4059375 12.45523438 0.436875 13.53546875 0.46875 14.6484375 C0.50742187 15.6796875 0.54609375 16.7109375 0.5859375 17.7734375 C0.6173584 18.72653809 0.6487793 19.67963867 0.68115234 20.66162109 C0.78555796 23.18895176 0.78555796 23.18895176 3 25 C7.33643601 25.31537716 9.32653229 25.44897847 13 23 C13.41428346 21.06923522 13.41428346 21.06923522 13.29296875 18.8671875 C13.28330078 18.06152344 13.27363281 17.25585938 13.26367188 16.42578125 C13.23853516 15.58402344 13.21339844 14.74226563 13.1875 13.875 C13.17396484 13.02550781 13.16042969 12.17601562 13.14648438 11.30078125 C13.11108219 9.20025163 13.05727401 7.10004707 13 5 C11.68 4.67 10.36 4.34 9 4 C9.33 3.01 9.66 2.02 10 1 C13.3 0.67 16.6 0.34 20 0 C20.33 8.25 20.66 16.5 21 25 C23.475 25.99 23.475 25.99 26 27 C26 27.66 26 28.32 26 29 C22.04 29 18.08 29 14 29 C13.67 28.01 13.34 27.02 13 26 C12.154375 26.66 11.30875 27.32 10.4375 28 C6.46412407 30.31178236 4.51990817 30.65744119 0 30 C-3.38939556 27.86320715 -4.72582557 26.8225233 -6 23 C-6.14492123 21.59335074 -6.24628931 20.1818867 -6.31640625 18.76953125 C-6.37924805 17.56586914 -6.37924805 17.56586914 -6.44335938 16.33789062 C-6.48267578 15.50451172 -6.52199219 14.67113281 -6.5625 13.8125 C-6.60568359 12.96751953 -6.64886719 12.12253906 -6.69335938 11.25195312 C-6.79931518 9.16815567 -6.9001502 7.08409897 -7 5 C-8.32 4.67 -9.64 4.34 -11 4 C-10.67 3.01 -10.34 2.02 -10 1 C-6.56484998 0.37542727 -3.50935186 0 0 0 Z " fill="#5B8744" transform="translate(378,242)"/>
<path d="M0 0 C2.96994863 2.68019754 3.8324848 4.68520045 4.3359375 8.63671875 C4.53041455 14.11947549 4.18557975 18.34415267 1 23 C-2.09173752 24.54586876 -4.59429552 24.29359521 -8 24 C-10.19921875 22.55078125 -10.19921875 22.55078125 -12 20 C-12.56080146 16.94528586 -12.51333174 13.97187059 -12.4375 10.875 C-12.44458984 10.05128906 -12.45167969 9.22757813 -12.45898438 8.37890625 C-12.41076276 3.84607457 -12.41076276 3.84607457 -12 2 C-7.99262717 -0.67158189 -4.70716975 -0.9261399 0 0 Z " fill="#F9FAF8" transform="translate(427,245)"/>
<path d="M0 0 C0.33 14.52 0.66 29.04 1 44 C1.99 44.33 2.98 44.66 4 45 C4 45.66 4 46.32 4 47 C-0.95 47 -5.9 47 -11 47 C-11 46.34 -11 45.68 -11 45 C-9.68 44.34 -8.36 43.68 -7 43 C-7 30.79 -7 18.58 -7 6 C-8.32 5.67 -9.64 5.34 -11 5 C-11 4.01 -11 3.02 -11 2 C-3.375 0 -3.375 0 0 0 Z " fill="#5F8A48" transform="translate(201,224)"/>
<path d="M0 0 C0.66 0 1.32 0 2 0 C2 2.64 2 5.28 2 8 C4.64 8 7.28 8 10 8 C10 8.99 10 9.98 10 11 C7.69 11 5.38 11 3 11 C3.33 18.92 3.66 26.84 4 35 C6.64 34.67 9.28 34.34 12 34 C11.67 34.99 11.34 35.98 11 37 C7.37671381 38.20776206 4.80388473 38.40040892 1 38 C-1.75872101 35.76860974 -2.88041309 33.97110114 -3.31616211 30.43261719 C-3.39413191 27.34143431 -3.34817207 24.27803214 -3.25 21.1875 C-3.23195313 20.11306641 -3.21390625 19.03863281 -3.1953125 17.93164062 C-3.14829392 15.28684535 -3.0825916 12.64388411 -3 10 C-4.65 10 -6.3 10 -8 10 C-7 7 -7 7 -4.5625 5.5625 C-1.84333111 3.90447019 -1.10592885 2.91563061 0 0 Z " fill="#5F8B49" transform="translate(287,234)"/>
<path d="M0 0 C2.33094534 0.3496418 4.66404762 0.68554487 7 1 C7 10 7 10 6 13 C1.62429436 15.81295362 -1.83257837 16.75162496 -7 16 C-10.38121991 13.55401113 -11.76936783 12.10703441 -12.625 8 C-11.79456673 4.01392031 -10.11743323 2.53744565 -7 0 C-3.67808522 -1.10730493 -3.20546665 -0.8904074 0 0 Z " fill="#648E4F" transform="translate(221,256)"/>
<path d="M0 0 C3.34139976 0.02999461 4.22721051 0.29795352 7.1875 2.1875 C10.25730302 5.35032735 10.25730302 5.35032735 10.234375 8.37109375 C10.15703125 9.15613281 10.0796875 9.94117188 10 10.75 C9.93296875 11.53246094 9.8659375 12.31492188 9.796875 13.12109375 C9.1456961 15.73046062 8.35493912 16.67365454 6.25 18.3125 C3.49921116 19.22942961 1.89051087 19.42136083 -0.9375 19.375 C-2.8246875 19.3440625 -2.8246875 19.3440625 -4.75 19.3125 C-4.77683987 16.33327407 -4.79676037 13.35428705 -4.8125 10.375 C-4.82087891 9.52486328 -4.82925781 8.67472656 -4.83789062 7.79882812 C-4.84111328 6.98994141 -4.84433594 6.18105469 -4.84765625 5.34765625 C-4.85289307 4.5987915 -4.85812988 3.84992676 -4.86352539 3.07836914 C-4.64512749 -0.31877499 -3.52443377 0.29370281 0 0 Z " fill="#FBFCFB" transform="translate(169.75,232.6875)"/>
<path d="M0 0 C3.31232698 -0.08834684 6.62434435 -0.14083584 9.9375 -0.1875 C10.86369141 -0.21263672 11.78988281 -0.23777344 12.74414062 -0.26367188 C20.02910652 -0.34035573 26.85547232 0.3156471 32.5625 5.1875 C34.45472111 8.88967173 35.00966012 11.99172525 34 16 C31.26361335 20.6545846 28.19395756 23.41126004 23 25 C19.30979892 25.24900142 15.7047205 25.08927037 12 25 C12 28.63 12 32.26 12 36 C11.67 36 11.34 36 11 36 C10.94610913 34.04196493 10.90725783 32.08351091 10.875 30.125 C10.85179687 29.03445313 10.82859375 27.94390625 10.8046875 26.8203125 C11 24 11 24 13 22 C14.63536129 21.67180571 16.28422702 21.40842194 17.9375 21.1875 C22.03383837 20.46489363 22.03383837 20.46489363 25.125 17.75 C26.16449443 14.48301751 26.56713151 12.40278905 26 9 C23.44975635 5.89835231 21.82300753 4.27433584 18 3 C18 2.34 18 1.68 18 1 C12.06 1 6.12 1 0 1 C0 0.67 0 0.34 0 0 Z " fill="#668F50" transform="translate(153,230)"/>
<path d="M0 0 C0.33 0 0.66 0 1 0 C0.5831315 8.6152823 -1.66118209 16.29532746 -8.1875 22.3125 C-12.98986991 25.99636923 -18.47227439 28.35913521 -23.93261719 30.89892578 C-26.0656928 31.89871157 -28.18896045 32.9176406 -30.3125 33.9375 C-30.9943335 34.24929199 -31.67616699 34.56108398 -32.37866211 34.88232422 C-37.16545963 37.19181123 -39.84822659 39.71431972 -43 44 C-43.495 42.515 -43.495 42.515 -44 41 C-39.35431572 32.45194093 -32.78660379 29.2204156 -24.1875 25.6875 C-14.87275873 21.65604767 -7.00469471 17.82247626 -2.5 8.25 C-1.44679701 5.53897748 -0.66302676 2.83061424 0 0 Z " fill="#84B44D" transform="translate(145,251)"/>
<path d="M0 0 C0.46707789 4.01686987 0.32150834 5.56501812 -2.125 8.875 C-5.44467709 11.32867437 -6.96800439 11.54981758 -11 11 C-12 10 -12 10 -12.0625 6.4375 C-12.041875 5.303125 -12.02125 4.16875 -12 3 C-7.77050005 0.58314288 -4.87664009 -0.34833144 0 0 Z " fill="#F9FAF8" transform="translate(228,257)"/>
<path d="M0 0 C0.33 0.99 0.66 1.98 1 3 C-1.70269883 8.09811407 -5.21159901 11.01482577 -9.8125 14.375 C-15.22918005 18.46553218 -19.77074628 22.65989799 -24 28 C-25.95216435 29.95216435 -27.53199953 30.84826645 -30 32 C-25.86191097 23.16305287 -18.21457241 17.52135104 -10.68701172 11.65649414 C-6.37333875 8.26526451 -2.50277115 5.00554231 0 0 Z " fill="#EFF5E8" transform="translate(132,238)"/>
<path d="M0 0 C0 0.33 0 0.66 0 1 C-2.64 1.33 -5.28 1.66 -8 2 C-8.72256829 6.48133574 -8.72256829 6.48133574 -9 11 C-10.66611905 11.042721 -12.33382885 11.04063832 -14 11 C-15 10 -15 10 -15.375 6.625 C-15 3 -15 3 -13.125 1.0625 C-8.72356374 -0.43398833 -4.60447094 -0.24139945 0 0 Z " fill="#699254" transform="translate(227,241)"/>
<path d="M0 0 C2.3863947 3.16440426 4.7300717 6.35813589 7.0625 9.5625 C7.75472656 10.51253906 8.44695312 11.46257812 9.16015625 12.44140625 C10.47489035 14.26975197 11.75083119 16.12624678 13 18 C12.01 18 11.02 18 10 18 C8.02734375 15.953125 8.02734375 15.953125 5.9375 13.25 C5.24527344 12.36828125 4.55304688 11.4865625 3.83984375 10.578125 C1.0459679 6.66313973 0 4.89886224 0 0 Z " fill="#D9EFE3" transform="translate(88,223)"/>
<path d="M0 0 C0.33 0 0.66 0 1 0 C0.58846263 4.97093824 0.20399168 9.44508386 -2 14 C-2.66 13.67 -3.32 13.34 -4 13 C-3.79503906 12.39671875 -3.59007812 11.7934375 -3.37890625 11.171875 C-2.97478516 9.97304688 -2.97478516 9.97304688 -2.5625 8.75 C-2.29566406 7.96109375 -2.02882812 7.1721875 -1.75390625 6.359375 C-1.08045292 4.25178012 -0.50849405 2.15246027 0 0 Z " fill="#9AC26D" transform="translate(145,251)"/>
</svg>
